<svg width="24" height="24" viewBox="0 0 24 24" fill="#C02942 " xmlns="http://www.w3.org/2000/svg">
<path d="M5.25541 9.25268L4.38311 8.76371L4.38311 8.76371L5.25541 9.25268ZM5.58579 18.7379L6.29289 18.0308L6.29289 18.0308L5.58579 18.7379ZM18.4142 18.7379L17.7071 18.0308L17.7071 18.0308L18.4142 18.7379ZM18.7446 9.25268L17.8723 9.74166L17.8723 9.74166L18.7446 9.25268ZM17.0872 7.9395L16.5654 8.79256V8.79256L17.0872 7.9395ZM13.0436 5.46609L13.5654 4.61302V4.61302L13.0436 5.46609ZM10.9564 5.46609L11.4782 6.31915L10.9564 5.46609ZM6.91278 7.9395L7.43458 8.79256V8.79256L6.91278 7.9395ZM10 19H9C9 19.5523 9.44772 20 10 20V19ZM14 19V20C14.5523 20 15 19.5523 15 19H14ZM6 11.3518C6 10.7849 6.00107 10.4301 6.0273 10.1583C6.05147 9.90781 6.09138 9.80646 6.1277 9.74166L4.38311 8.76371C4.16403 9.15453 4.07623 9.5549 4.03655 9.96617C3.99893 10.356 4 10.8229 4 11.3518H6ZM6 15.3236V11.3518H4V15.3236H6ZM6.29289 18.0308C6.21677 17.9546 6.12262 17.8187 6.06431 17.3849C6.00212 16.9224 6 16.2947 6 15.3236H4C4 16.2382 3.99788 17.0247 4.08214 17.6514C4.17027 18.307 4.36902 18.9353 4.87868 19.445L6.29289 18.0308ZM9 18.3236C8.02892 18.3236 7.40121 18.3215 6.9387 18.2593C6.50496 18.201 6.36902 18.1069 6.29289 18.0308L4.87868 19.445C5.38834 19.9546 6.01669 20.1534 6.67221 20.2415C7.29896 20.3258 8.08546 20.3236 9 20.3236V18.3236ZM15 18.3236H9V20.3236H15V18.3236ZM17.7071 18.0308C17.631 18.1069 17.495 18.201 17.0613 18.2593C16.5988 18.3215 15.9711 18.3236 15 18.3236V20.3236C15.9145 20.3236 16.701 20.3258 17.3278 20.2415C17.9833 20.1534 18.6117 19.9546 19.1213 19.445L17.7071 18.0308ZM18 15.3236C18 16.2947 17.9979 16.9224 17.9357 17.3849C17.8774 17.8187 17.7832 17.9546 17.7071 18.0308L19.1213 19.445C19.631 18.9353 19.8297 18.307 19.9179 17.6514C20.0021 17.0247 20 16.2382 20 15.3236H18ZM18 11.3518V15.3236H20V11.3518H18ZM17.8723 9.74166C17.9086 9.80646 17.9485 9.90781 17.9727 10.1583C17.9989 10.4301 18 10.7849 18 11.3518H20C20 10.8229 20.0011 10.356 19.9635 9.96617C19.9238 9.5549 19.836 9.15453 19.6169 8.76371L17.8723 9.74166ZM16.5654 8.79256C17.0489 9.08832 17.3511 9.27439 17.5693 9.43862C17.7703 9.58993 17.836 9.67686 17.8723 9.74166L19.6169 8.76371C19.3978 8.37288 19.1021 8.08907 18.7719 7.84062C18.459 7.60509 18.0601 7.36238 17.609 7.08643L16.5654 8.79256ZM12.5218 6.31915L16.5654 8.79256L17.609 7.08643L13.5654 4.61302L12.5218 6.31915ZM12 5.99997C11.9387 5.99997 11.9204 5.97789 12.0049 6.01839C12.1102 6.06882 12.2504 6.15315 12.5218 6.31915L13.5654 4.61302C13.3288 4.46827 13.088 4.31955 12.8689 4.2146C12.629 4.09973 12.3429 3.99997 12 3.99997V5.99997ZM11.4782 6.31915C11.7496 6.15315 11.8898 6.06882 11.9951 6.01839C12.0796 5.97789 12.0613 5.99997 12 5.99997V3.99997C11.6571 3.99997 11.371 4.09973 11.1311 4.2146C10.912 4.31955 10.6712 4.46828 10.4346 4.61302L11.4782 6.31915ZM7.43458 8.79256L11.4782 6.31915L10.4346 4.61302L6.39097 7.08643L7.43458 8.79256ZM6.1277 9.74166C6.16403 9.67686 6.22966 9.58993 6.4307 9.43862C6.64892 9.27439 6.95106 9.08832 7.43458 8.79256L6.39097 7.08643C5.93985 7.36238 5.54101 7.60509 5.22805 7.84062C4.89792 8.08907 4.60219 8.37288 4.38311 8.76371L6.1277 9.74166ZM11 15C11 14.4477 11.4477 14 12 14V12C10.3431 12 9 13.3431 9 15H11ZM11 19V15H9V19H11ZM14 18H10V20H14V18ZM13 15V19H15V15H13ZM12 14C12.5523 14 13 14.4477 13 15H15C15 13.3431 13.6569 12 12 12V14Z" fill="black"/>
</svg>
