<svg width="128" height="128" viewBox="0 0 128 128" fill="none" xmlns="http://www.w3.org/2000/svg">
<path d="M120 0H8L18.4997 113.86L63.9943 126.764L109.489 113.86L120 0Z" fill="#E6A329"/>
<path d="M93.3194 23.2448H36.6437L32.6961 65.871L32.7774 65.6059H80.9265L79.3583 83.6415L63.9957 88.0609L48.4065 83.5702L47.4727 72.6542H33.322L35.3406 94.4662L63.9957 102.601L92.6636 94.4662L96.6112 51.6518H45.5111L46.1668 37.387H81.6207L82.1511 45.5601H96.4216L93.3194 23.2448Z" fill="white"/>
<path d="M64.0071 23.2448H36.6437L32.6961 65.871L32.7774 65.6059L64.0057 65.6059V51.7003H47.5041L48.1599 37.4355H64.0071V23.2448ZM47.5041 72.6613H33.3205L35.3392 94.4619L63.9943 102.588V88.0808L48.4051 83.5787L47.5041 72.6613Z" fill="#EBEBEB"/>
</svg>
